PathFileType	4	(X/Y/Z)	./trials/Ivanov/data/jump_js_1.trc
DataRate	CameraRate	NumFrames	NumMarkers	Units	OrigDataRate	OrigDataStartFrame	OrigNumFrames
400	400	5	71	mm	400	137	364
Frame#	Time	r_illiac			r_troch			r_asis			l_illiac			l_troch			l_asis			r_psis			sacrum			l_psis			r_thigh1			r_thigh2			r_thigh3			r_thigh4			rl_knee			rm_knee			r_shank1			r_shank2			r_shank3			r_shank4			r_heel			rl_ankle			rm_ankle			r_metatarsal5			r_metatarsal1			l_thigh1			l_thigh2			l_thigh3			l_thigh4			ll_knee			lm_knee			l_shank1			l_shank2			l_shank3			l_shank4			l_heel			ll_ankle			lm_ankle			l_metatarsal5			l_metatarsal1			back_down			neck			back_right			back_left			head_up			head_front			head_left			head_right			r_shoulder			r_humerus1			r_humerus2			r_humerus3			rl_elbow			rm_elbow			r_radius1			r_radius2			r_radius3			rl_wrist			rm_wrist			r_hand			l_shoulder			l_humerus1			l_humerus2			l_humerus3			ll_elbow			lm_elbow			l_radius1			l_radius2			l_radius3			ll_wrist			lm_wrist			l_hand		
		X1	Y1	Z1	X2	Y2	Z2	X3	Y3	Z3	X4	Y4	Z4	X5	Y5	Z5	X6	Y6	Z6	X7	Y7	Z7	X8	Y8	Z8	X9	Y9	Z9	X10	Y10	Z10	X11	Y11	Z11	X12	Y12	Z12	X13	Y13	Z13	X14	Y14	Z14	X15	Y15	Z15	X16	Y16	Z16	X17	Y17	Z17	X18	Y18	Z18	X19	Y19	Z19	X20	Y20	Z20	X21	Y21	Z21	X22	Y22	Z22	X23	Y23	Z23	X24	Y24	Z24	X25	Y25	Z25	X26	Y26	Z26	X27	Y27	Z27	X28	Y28	Z28	X29	Y29	Z29	X30	Y30	Z30	X31	Y31	Z31	X32	Y32	Z32	X33	Y33	Z33	X34	Y34	Z34	X35	Y35	Z35	X36	Y36	Z36	X37	Y37	Z37	X38	Y38	Z38	X39	Y39	Z39	X40	Y40	Z40	X41	Y41	Z41	X42	Y42	Z42	X43	Y43	Z43	X44	Y44	Z44	X45	Y45	Z45	X46	Y46	Z46	X47	Y47	Z47	X48	Y48	Z48	X49	Y49	Z49	X50	Y50	Z50	X51	Y51	Z51	X52	Y52	Z52	X53	Y53	Z53	X54	Y54	Z54	X55	Y55	Z55	X56	Y56	Z56	X57	Y57	Z57	X58	Y58	Z58	X59	Y59	Z59	X60	Y60	Z60	X61	Y61	Z61	X62	Y62	Z62	X63	Y63	Z63	X64	Y64	Z64	X65	Y65	Z65	X66	Y66	Z66	X67	Y67	Z67	X68	Y68	Z68	X69	Y69	Z69	X70	Y70	Z70	X71	Y71	Z71
137	0.3400	-393.240	764.381	559.004	-458.451	633.884	617.684	-368.225	693.808	530.572	-407.503	766.316	224.282	-445.937	679.543	186.589	-378.482	697.838	262.617	-524.030	809.748	455.937	-498.125	837.466	395.660	-530.188	811.728	341.488	-380.193	541.525	595.427	-341.545	608.875	607.270	-238.927	537.882	621.099	-272.156	478.933	606.760	-101.288	427.318	610.952	-117.672	418.159	477.720	-198.711	346.808	613.817	-137.869	310.116	605.307	-203.669	220.556	599.602	-251.817	256.081	607.162	-407.430	79.934	532.553	-353.295	100.892	575.567	-325.505	95.833	483.496	-197.698	35.021	603.086	-188.170	38.778	509.657	-364.813	565.386	181.467	-322.383	627.206	190.389	-223.379	558.880	166.377	-253.920	506.981	159.626	-130.844	433.443	157.911	-111.301	400.253	283.899	-208.742	323.747	142.822	-144.656	289.206	172.005	-208.839	201.685	181.020	-259.658	227.959	159.781	-419.765	72.889	221.019	-356.724	99.202	183.848	-326.545	102.469	278.762	-207.406	35.065	163.387	-191.773	38.089	239.965	-345.402	905.386	390.036	-37.451	997.784	375.108	-182.489	968.468	476.592	-196.619	962.365	294.503	175.720	1105.187	371.751	240.089	966.434	348.646	129.964	1006.355	269.373	158.932	1002.794	463.424	27.665	895.979	550.882	-113.503	777.647	646.921	-72.019	884.287	715.256	-145.854	813.264	741.740	-200.864	793.891	776.172	-260.097	878.078	736.170	-272.970	760.686	661.417	-305.406	734.671	785.393	-355.024	718.826	694.459	-441.971	768.647	632.971	-413.521	681.048	658.760	-395.991	717.626	614.064	27.063	908.981	212.979	-111.896	779.205	129.104	-80.274	870.832	40.027	-154.510	800.042	35.352	-226.089	779.326	-18.370	-272.986	873.414	22.025	-273.823	825.491	96.644	-269.196	718.458	37.957	-339.703	750.775	106.847	-425.580	767.744	169.395	-421.752	679.566	131.728	-395.738	725.056	179.014
138	0.3425	-392.797	765.751	559.061	-457.769	634.457	617.445	-367.239	695.604	530.717	-407.129	767.712	224.184	-445.612	680.958	186.405	-377.807	699.557	262.289	-523.497	810.939	456.052	-497.670	838.829	395.664	-529.661	812.976	341.423	-379.651	542.041	595.215	-340.633	609.480	607.072	-238.140	538.181	620.741	-271.504	479.413	606.303	-100.945	427.208	610.417	-117.550	418.100	477.310	-198.490	346.832	613.447	-137.628	310.097	604.903	-203.567	220.537	599.309	-251.623	256.145	606.894	-407.412	79.993	532.527	-353.179	101.066	575.595	-325.463	95.785	483.428	-197.676	34.973	603.073	-188.130	38.741	509.611	-364.015	566.078	181.625	-321.586	627.726	190.420	-222.643	559.169	166.573	-253.352	507.374	159.921	-130.542	433.501	158.246	-111.244	400.115	284.252	-208.598	323.752	143.110	-144.517	289.170	172.257	-208.729	201.661	181.172	-259.528	227.982	159.959	-419.721	72.912	221.027	-356.673	99.268	183.884	-326.503	102.446	278.804	-207.394	35.018	163.394	-191.722	38.043	239.955	-345.315	907.095	390.111	-37.953	1001.122	374.829	-182.833	971.226	476.364	-196.965	964.994	294.361	173.712	1110.439	371.641	239.621	972.471	348.572	129.117	1011.126	269.162	158.018	1007.915	463.279	27.492	899.566	550.666	-113.219	780.809	646.688	-72.246	887.523	715.059	-145.783	816.198	741.447	-200.638	796.598	776.012	-260.280	880.439	735.768	-272.673	762.509	661.259	-304.777	736.746	785.358	-354.950	721.042	693.379	-441.591	769.568	633.147	-412.579	682.146	658.848	-395.412	718.718	614.133	27.047	912.460	212.687	-111.335	781.979	128.935	-80.328	873.910	39.861	-154.131	802.639	35.117	-225.844	781.378	-18.377	-272.960	875.211	22.075	-273.504	827.212	96.676	-268.543	720.083	37.906	-339.107	752.224	106.833	-425.067	768.880	169.395	-419.997	681.893	132.044	-395.097	726.172	178.959
139	0.3450	-392.194	767.235	559.110	-457.186	635.218	617.470	-366.753	696.334	530.274	-406.700	769.236	224.101	-444.859	682.034	186.323	-376.931	700.852	262.425	-522.951	812.191	456.177	-497.311	840.256	395.703	-529.153	814.275	341.404	-378.721	542.947	594.872	-339.607	610.053	606.828	-237.446	538.453	620.377	-270.807	479.878	605.813	-100.524	427.072	609.848	-117.455	417.981	476.816	-198.227	346.773	613.018	-137.436	309.988	604.504	-203.413	220.550	599.023	-251.539	255.941	606.504	-407.416	80.075	532.535	-353.068	101.212	575.613	-325.461	95.782	483.370	-197.626	34.951	603.023	-188.099	38.704	509.600	-363.318	566.628	181.816	-320.587	628.394	190.453	-221.839	559.430	166.726	-252.723	507.724	160.224	-130.159	433.370	158.531	-111.102	399.968	284.636	-208.770	323.498	143.509	-144.381	289.070	172.534	-208.619	201.650	181.335	-259.373	227.973	160.170	-419.695	72.900	221.012	-356.636	99.301	183.907	-326.481	102.375	278.863	-207.366	35.022	163.388	-191.688	38.021	239.966	-345.231	909.095	390.050	-38.481	1004.586	374.608	-183.245	974.149	476.166	-197.267	967.634	294.229	171.627	1115.895	371.496	239.128	978.673	348.449	128.319	1015.895	268.956	157.080	1013.177	463.140	27.314	903.346	550.485	-112.924	784.126	646.503	-72.492	890.984	714.844	-146.699	819.962	740.538	-200.433	799.539	775.785	-260.581	882.986	735.459	-272.381	764.737	661.092	-304.089	738.980	785.384	-354.186	723.170	693.089	-441.127	770.593	633.162	-411.732	683.217	658.995	-394.761	719.814	614.146	26.990	916.120	212.475	-110.652	784.777	128.649	-80.378	877.072	39.698	-153.753	805.141	34.980	-225.457	783.456	-18.355	-272.976	877.164	22.155	-273.223	829.030	96.763	-267.793	721.986	37.852	-338.487	753.877	106.884	-424.544	770.038	169.437	-420.500	682.412	131.608	-394.488	727.408	178.939
140	0.3475	-391.576	768.767	559.148	-456.437	635.968	617.260	-365.587	698.279	530.574	-406.287	770.636	223.957	-444.348	683.397	186.217	-376.073	701.771	262.605	-522.324	813.412	456.260	-496.821	841.867	395.790	-528.648	815.728	341.387	-378.083	543.644	594.555	-338.560	610.774	606.602	-236.585	538.833	620.008	-270.134	480.270	605.378	-100.135	427.150	609.345	-117.129	417.965	476.272	-197.986	346.684	612.588	-137.214	309.950	604.108	-203.249	220.559	598.730	-251.482	255.940	606.126	-407.352	80.078	532.508	-352.941	101.371	575.655	-325.411	95.733	483.333	-197.602	34.915	602.997	-188.086	38.678	509.584	-362.486	567.425	182.011	-319.603	629.120	190.472	-221.139	559.723	166.967	-252.099	508.092	160.519	-129.817	433.318	159.001	-110.767	399.994	284.762	-208.538	323.595	143.833	-144.218	289.041	172.787	-208.539	201.636	181.482	-259.255	227.983	160.419	-419.684	72.954	221.033	-356.618	99.332	183.960	-326.406	102.375	278.932	-207.339	34.977	163.392	-191.651	37.978	239.953	-345.250	911.134	390.020	-39.043	1008.156	374.383	-183.609	977.101	475.885	-197.592	970.417	294.121	169.454	1121.541	371.320	238.582	985.081	348.321	127.401	1020.916	268.769	156.037	1018.655	462.968	27.125	907.293	550.308	-112.678	787.383	646.276	-72.764	894.552	714.646	-146.735	823.368	740.351	-200.236	802.558	775.496	-260.867	885.524	735.094	-272.036	766.923	660.903	-303.402	741.362	785.442	-353.513	724.948	692.991	-440.667	771.639	633.120	-411.266	684.547	659.123	-393.736	718.747	613.900	26.944	920.088	212.282	-109.869	787.890	128.447	-80.460	880.348	39.556	-153.194	808.282	34.778	-224.894	786.017	-18.310	-272.940	879.124	22.275	-272.956	830.923	96.852	-267.070	723.930	37.820	-337.935	755.310	106.864	-423.961	771.170	169.425	-419.709	683.971	131.541	-393.916	728.312	178.718
141	0.3500	-391.005	770.424	559.172	-455.633	636.831	616.977	-364.896	699.337	530.223	-405.805	772.280	223.861	-443.378	684.495	186.171	-375.253	703.036	262.563	-521.748	814.672	456.319	-496.410	843.447	395.817	-528.089	817.072	341.344	-376.472	545.423	594.233	-337.481	611.482	606.372	-235.658	539.307	619.601	-269.480	480.874	604.900	-99.691	427.122	608.776	-115.905	418.140	475.146	-197.698	346.732	612.159	-137.008	309.880	603.696	-203.182	220.375	598.275	-251.351	255.791	605.714	-407.302	80.148	532.487	-352.848	101.500	575.642	-325.381	95.716	483.248	-197.570	34.894	602.962	-188.060	38.647	509.555	-361.694	568.092	182.200	-318.279	629.900	190.399	-220.390	560.009	167.198	-251.506	508.466	160.829	-129.420	433.250	159.521	-110.724	399.682	285.388	-208.277	323.722	144.164	-144.083	288.960	173.102	-208.430	201.622	181.657	-259.136	228.093	160.531	-419.642	72.970	221.065	-356.571	99.341	184.006	-326.318	102.325	278.968	-207.321	34.962	163.377	-191.635	37.960	239.966	-345.221	913.264	389.983	-39.646	1011.887	374.140	-183.989	979.984	475.471	-197.904	973.178	293.975	167.243	1127.270	371.122	237.975	991.729	348.218	126.506	1026.186	268.476	155.036	1024.333	462.803	26.857	911.489	550.083	-112.403	790.911	645.964	-73.012	898.321	714.472	-146.692	826.708	740.062	-199.962	805.622	775.304	-261.187	888.205	734.745	-271.712	769.488	660.703	-302.729	743.793	785.379	-351.662	722.760	694.914	-440.167	772.761	633.105	-410.115	686.180	659.241	-392.914	719.963	614.140	26.854	924.119	212.101	-109.107	790.930	128.226	-80.529	883.811	39.394	-152.768	810.882	34.780	-224.462	788.293	-18.190	-272.937	881.291	22.421	-272.764	832.993	96.935	-266.238	725.970	37.813	-337.265	757.018	106.839	-423.323	772.521	169.428	-419.289	684.244	131.881	-393.414	730.077	178.934
